<svg width="24" height="25" viewBox="0 0 24 25" fill="none" xmlns="http://www.w3.org/2000/svg">
<path d="M12 2.98828C10.0716 2.98828 8.18657 3.56011 6.58319 4.63145C4.97982 5.7028 3.73013 7.22554 2.99218 9.00712C2.25422 10.7887 2.06114 12.7491 2.43735 14.6404C2.81355 16.5317 3.74215 18.269 5.10571 19.6326C6.46928 20.9961 8.20656 21.9247 10.0979 22.3009C11.9892 22.6771 13.9496 22.4841 15.7312 21.7461C17.5127 21.0082 19.0355 19.7585 20.1068 18.1551C21.1782 16.5517 21.75 14.6666 21.75 12.7383C21.7473 10.1533 20.7192 7.67489 18.8913 5.847C17.0634 4.01912 14.585 2.99101 12 2.98828ZM16.2806 13.2689L13.2806 16.2689C13.1399 16.4096 12.949 16.4887 12.75 16.4887C12.551 16.4887 12.3601 16.4096 12.2194 16.2689C12.0786 16.1282 11.9996 15.9373 11.9996 15.7383C11.9996 15.5393 12.0786 15.3484 12.2194 15.2077L13.9397 13.4883H8.25C8.05109 13.4883 7.86033 13.4093 7.71967 13.2686C7.57902 13.128 7.5 12.9372 7.5 12.7383C7.5 12.5394 7.57902 12.3486 7.71967 12.208C7.86033 12.0673 8.05109 11.9883 8.25 11.9883H13.9397L12.2194 10.2689C12.0786 10.1282 11.9996 9.9373 11.9996 9.73828C11.9996 9.53926 12.0786 9.34839 12.2194 9.20766C12.3601 9.06693 12.551 8.98786 12.75 8.98786C12.949 8.98786 13.1399 9.06693 13.2806 9.20766L16.2806 12.2077C16.3504 12.2773 16.4057 12.36 16.4434 12.4511C16.4812 12.5421 16.5006 12.6397 16.5006 12.7383C16.5006 12.8368 16.4812 12.9344 16.4434 13.0255C16.4057 13.1165 16.3504 13.1993 16.2806 13.2689Z" fill="#1E0FB0"/>
</svg>
