<svg width="224" height="208" viewBox="0 0 224 208" fill="none" xmlns="http://www.w3.org/2000/svg">
<path d="M212.335 161.125C194.888 157.639 192.243 154.994 188.757 137.547C188.709 137.296 188.487 137.122 188.236 137.122C187.985 137.122 187.772 137.296 187.715 137.547C184.229 154.994 181.584 157.639 164.137 161.125C163.895 161.173 163.712 161.395 163.712 161.646C163.712 161.897 163.886 162.11 164.137 162.168C181.584 165.653 184.229 168.299 187.715 185.745C187.763 185.996 187.985 186.17 188.236 186.17C188.487 186.17 188.699 185.996 188.757 185.745C192.243 168.299 194.888 165.653 212.335 162.168C212.576 162.119 212.76 161.897 212.76 161.646C212.76 161.395 212.586 161.183 212.335 161.125Z" fill="#DBFF4B"/>
<path d="M32.6298 86.7028C21.0437 84.3856 19.2865 82.6284 16.9693 71.0422C16.9403 70.8781 16.7955 70.7622 16.6217 70.7622C16.4479 70.7622 16.3127 70.8781 16.2741 71.0422C13.9569 82.6284 12.1996 84.3856 0.613494 86.7028C0.449357 86.7318 0.333496 86.8766 0.333496 87.0504C0.333496 87.2242 0.449357 87.3594 0.613494 87.398C12.1996 89.7152 13.9569 91.4724 16.2741 103.059C16.3031 103.223 16.4479 103.339 16.6217 103.339C16.7955 103.339 16.9306 103.223 16.9693 103.059C19.2865 91.4724 21.0437 89.7152 32.6298 87.398C32.794 87.369 32.9098 87.2242 32.9098 87.0504C32.9098 86.8766 32.794 86.7414 32.6298 86.7028Z" fill="#DBFF4B"/>
<path d="M223.778 55.8455C214.528 53.9918 213.128 52.5918 211.275 43.3422C211.246 43.207 211.13 43.1201 211.004 43.1201C210.879 43.1201 210.753 43.2167 210.734 43.3422C208.88 52.5918 207.48 53.9918 198.231 55.8455C198.095 55.8745 198.009 55.9904 198.009 56.1159C198.009 56.2414 198.105 56.3669 198.231 56.3862C207.48 58.24 208.88 59.64 210.734 68.8896C210.763 69.0248 210.879 69.1117 211.004 69.1117C211.13 69.1117 211.255 69.0151 211.275 68.8896C213.128 59.64 214.528 58.24 223.778 56.3862C223.913 56.3573 224 56.2414 224 56.1159C224 55.9904 223.904 55.8649 223.778 55.8455Z" fill="#DBFF4B"/>
<path d="M36.3142 199.234C30.6274 198.094 29.7681 197.235 28.6288 191.548C28.6095 191.471 28.5419 191.413 28.4646 191.413C28.3874 191.413 28.3102 191.471 28.3005 191.548C27.1612 197.235 26.3019 198.094 20.615 199.234C20.5378 199.253 20.4799 199.321 20.4799 199.398C20.4799 199.475 20.5378 199.552 20.615 199.562C26.3019 200.701 27.1612 201.561 28.3005 207.247C28.3198 207.325 28.3874 207.383 28.4646 207.383C28.5419 207.383 28.6191 207.325 28.6288 207.247C29.7681 201.561 30.6274 200.701 36.3142 199.562C36.3915 199.543 36.4494 199.475 36.4494 199.398C36.4494 199.321 36.3915 199.243 36.3142 199.234Z" fill="#DBFF4B"/>
<path d="M96.6687 8.43807C90.9819 7.29877 90.1226 6.43946 88.9833 0.752603C88.964 0.675362 88.8964 0.617432 88.8191 0.617432C88.7419 0.617432 88.6647 0.675362 88.655 0.752603C87.5157 6.43946 86.6564 7.29877 80.9695 8.43807C80.8923 8.45738 80.8344 8.52497 80.8344 8.60221C80.8344 8.67945 80.8923 8.75669 80.9695 8.76635C86.6564 9.90565 87.5157 10.765 88.655 16.4518C88.6743 16.5291 88.7419 16.587 88.8191 16.587C88.8964 16.587 88.9736 16.5291 88.9833 16.4518C90.1226 10.765 90.9819 9.90565 96.6687 8.76635C96.746 8.74704 96.8039 8.67945 96.8039 8.60221C96.8039 8.52497 96.746 8.44773 96.6687 8.43807Z" fill="#DBFF4B"/>
<path d="M142.405 154.27L46.8577 119.067L73.9209 48.585L169.478 83.7875L142.405 154.27Z" fill="#FE6A0F"/>
<path d="M73.9209 48.5849L139.904 16.781L169.478 83.7875L73.9209 48.5849Z" fill="#FE6A0F"/>
<path d="M105.773 60.3159L139.904 16.781L137.625 72.0469L105.773 60.3159Z" fill="#FF8A26"/>
<path d="M142.405 154.27L76.4216 186.074L46.8577 119.067L142.405 154.27Z" fill="#FE6A0F"/>
<path d="M110.552 142.539L76.4216 186.074L78.7002 130.798L110.552 142.539Z" fill="#DB520D"/>
<path d="M73.9209 48.585L105.773 60.3159L78.7002 130.798L46.8577 119.067L73.9209 48.585Z" fill="#FF8A26"/>
<path d="M137.625 72.0469L169.478 83.7875L142.405 154.27L110.552 142.539L137.625 72.0469Z" fill="#DB520D"/>
<g style="mix-blend-mode:overlay">
<path d="M127.825 97.5655L101.622 71.1201L95.6643 86.6359L121.868 113.081L127.825 97.5655Z" fill="#F9EAD9"/>
</g>
<g style="mix-blend-mode:overlay">
<path d="M118.479 121.906L92.2754 95.4702L86.6851 110.03L112.879 136.475L118.479 121.906Z" fill="#F9EAD9"/>
</g>
<g style="mix-blend-mode:overlay">
<path d="M99.478 76.72L73.274 50.2747L64.9224 71.9407L91.1457 98.4151L99.478 76.72Z" fill="#F9EAD9"/>
</g>
<g style="mix-blend-mode:overlay">
<path d="M86.6946 110.001L60.452 83.5173L54.8424 98.0676L81.1043 124.571L86.6946 110.001Z" fill="#F9EAD9"/>
</g>
<g style="mix-blend-mode:overlay">
<path d="M163.849 98.5502L137.645 72.0952L129.293 93.7613L155.517 120.236L163.849 98.5502Z" fill="#F9EAD9"/>
</g>
<g style="mix-blend-mode:overlay">
<path d="M154.165 123.75L127.941 97.2756L125.489 103.638L151.722 130.122L154.165 123.75Z" fill="#F9EAD9"/>
</g>
<g style="mix-blend-mode:overlay">
<path d="M142.53 154.048L146.334 144.142L120.082 117.648L116.124 127.931L141.681 153.719L142.53 154.048Z" fill="#F9EAD9"/>
</g>
</svg>
