<svg width="102" height="102" viewBox="0 0 102 102" fill="none" xmlns="http://www.w3.org/2000/svg">
<g filter="url(#filter0_b_3380_61)">
<rect x="1" y="1" width="100" height="100" rx="50" fill="white" fill-opacity="0.03"/>
<rect x="0.5" y="0.5" width="101" height="101" rx="50.5" stroke="#E4E4E4" stroke-opacity="0.22"/>
<path d="M82.9883 47.3009C80.8937 29.7024 64.9219 17.1345 47.32 19.2278C29.7097 21.321 17.1333 37.2736 19.2279 54.872C19.3377 55.7245 20.0472 56.366 20.9087 56.3829H21.1114C22.0574 56.2731 22.7331 55.4206 22.6233 54.4753C22.6233 54.4669 22.6233 54.4584 22.6233 54.45C20.7651 38.7338 31.9986 24.4947 47.717 22.6377C55.2594 21.743 62.8441 23.8869 68.8156 28.5799C74.8039 33.2643 78.6639 40.1518 79.5423 47.6976C79.6521 48.6514 80.5136 49.3266 81.468 49.2169C82.4224 49.1071 83.0981 48.2462 82.9883 47.2924V47.3009Z" fill="#FFFAF2"/>
<path d="M52.7933 50.8798C52.6835 49.926 51.8219 49.2508 50.8675 49.3605C49.9131 49.4702 49.2374 50.3311 49.3472 51.2849C50.5381 61.2194 48.7982 71.2805 44.3302 80.2358C43.9163 81.0883 44.2626 82.1181 45.1241 82.5401C45.9772 82.9621 47.0076 82.6161 47.4299 81.772C52.1936 72.2174 54.0602 61.481 52.7848 50.8798H52.7933Z" fill="#FFFAF2"/>
<path d="M70.7921 36.5478C70.2178 35.7882 69.1451 35.6362 68.3849 36.2017C67.6248 36.7673 67.4728 37.8476 68.0386 38.6073C70.2093 41.5446 71.5776 44.9967 72.0168 48.6262C72.9543 56.4252 72.6334 64.3255 71.0877 72.0317C70.9104 72.9517 71.5016 73.8379 72.4138 74.0321C73.3429 74.2177 74.2551 73.61 74.4324 72.6731V72.6563C76.0541 64.5956 76.3835 56.3239 75.4037 48.1619C74.897 43.9586 73.3091 39.9493 70.7921 36.5478Z" fill="#FFFAF2"/>
<path d="M30.1659 53.5638C28.7976 42.0172 37.0495 31.551 48.6039 30.1837C52.8524 29.6772 57.1515 30.4791 60.9354 32.4795C61.78 32.9268 62.8189 32.6061 63.2665 31.762C63.7142 30.918 63.3932 29.8798 62.5486 29.4325C50.5888 23.0936 35.7573 27.6431 29.4142 39.5948C27.0746 44.0008 26.137 49.0144 26.7283 53.9605C27.3026 58.7801 26.6354 63.6671 24.8025 68.1575C24.4478 69.0353 24.8701 70.0397 25.757 70.3942C25.757 70.3942 25.757 70.3942 25.7654 70.3942C26.6438 70.7571 27.6489 70.3351 28.0121 69.4489C30.0645 64.4183 30.8078 58.9404 30.1659 53.547V53.5638Z" fill="#FFFAF2"/>
<path d="M50.0567 41.7387C44.9383 42.2958 41.2473 46.8874 41.7963 52.0024C41.7963 52.0614 41.8132 52.1205 41.8216 52.188C42.0835 54.3826 42.1764 56.594 42.1004 58.8054C42.0666 59.7592 42.8183 60.5526 43.7643 60.5779C44.7187 60.6117 45.5126 59.8605 45.538 58.9151C45.614 56.5349 45.5126 54.1547 45.2339 51.7829C44.8031 48.5671 47.0583 45.6129 50.2678 45.1824C53.4858 44.752 56.442 47.0056 56.8728 50.213C56.8812 50.2805 56.8897 50.3396 56.8981 50.4071C58.1144 60.6792 56.6109 71.0948 52.5314 80.5988C52.1513 81.4681 52.5483 82.481 53.4183 82.8608C53.4183 82.8608 53.4267 82.8608 53.4352 82.8608C54.3051 83.2322 55.3187 82.8355 55.6903 81.9661C60.0148 71.8966 61.6111 60.8649 60.3104 49.9851C59.7529 44.8701 55.1582 41.1816 50.0398 41.7303L50.0567 41.7387Z" fill="#FFFAF2"/>
<path d="M42.8014 67.2543C41.8808 67.0096 40.9348 67.5666 40.6983 68.4867C39.8368 71.77 38.5867 74.9436 36.9904 77.94C36.5597 78.7756 36.8806 79.8054 37.7083 80.2443C38.5445 80.6916 39.5834 80.3878 40.0395 79.5521C41.7625 76.3194 43.1055 72.8926 44.0345 69.356C44.2795 68.436 43.722 67.4907 42.8014 67.2543Z" fill="#FFFAF2"/>
<path d="M66.1551 50.9979H66.3832C67.3207 50.8798 67.988 50.0188 67.8697 49.0819C66.7548 39.8058 58.334 33.18 49.0516 34.2942C47.9282 34.4292 46.8133 34.674 45.7407 35.0369C44.8369 35.3408 44.3555 36.3199 44.6596 37.223C44.9636 38.1262 45.9434 38.6073 46.8471 38.3034C53.9082 35.957 61.5435 39.7805 63.8831 46.8452C64.1703 47.7146 64.373 48.6093 64.4743 49.5124L64.4575 49.5293C64.5841 50.3649 65.3105 50.9895 66.1551 50.9895V50.9979Z" fill="#FFFAF2"/>
<path d="M66.6281 57.7672C65.6737 57.7419 64.8798 58.4847 64.8544 59.4384C64.6686 65.9039 63.5284 72.3018 61.4759 78.438C61.1803 79.3411 61.6787 80.3118 62.5824 80.6072C63.4777 80.8857 64.4321 80.3962 64.7277 79.5099C66.8815 73.0698 68.0809 66.3428 68.2836 59.5482C68.3089 58.5944 67.5657 57.801 66.6112 57.7757L66.6281 57.7672Z" fill="#FFFAF2"/>
<path d="M37.7168 52.6692C37.3451 49.5462 38.0715 46.3979 39.7861 43.756C40.2675 42.9373 39.9973 41.8822 39.178 41.4011C38.4094 40.9453 37.4212 41.1563 36.8975 41.8822C34.7437 45.1909 33.8231 49.1495 34.2792 53.0659C35.1407 60.2318 33.8315 67.4907 30.5206 73.9055C30.0814 74.7495 30.4108 75.7877 31.2554 76.2266C31.2554 76.2266 31.2554 76.2266 31.2639 76.2266C32.1085 76.6655 33.1474 76.3279 33.5866 75.4838C37.2185 68.4613 38.6628 60.5104 37.7168 52.6607V52.6692Z" fill="#FFFAF2"/>
</g>
<defs>
<filter id="filter0_b_3380_61" x="-29.5" y="-29.5" width="161" height="161" filterUnits="userSpaceOnUse" color-interpolation-filters="sRGB">
<feFlood flood-opacity="0" result="BackgroundImageFix"/>
<feGaussianBlur in="BackgroundImageFix" stdDeviation="14.75"/>
<feComposite in2="SourceAlpha" operator="in" result="effect1_backgroundBlur_3380_61"/>
<feBlend mode="normal" in="SourceGraphic" in2="effect1_backgroundBlur_3380_61" result="shape"/>
</filter>
</defs>
</svg>
