<svg width="219" height="160" viewBox="0 0 219 160" fill="none" xmlns="http://www.w3.org/2000/svg">
<g clip-path="url(#clip0_45_163)">
<path d="M161.192 80.0043C161.192 124.189 125.301 160 81.0086 160C76.3466 160 71.7794 159.605 67.3416 158.839C29.572 152.365 0.833374 119.529 0.833374 80.0043C0.833374 40.4793 29.572 7.63502 67.3416 1.16073C71.7881 0.395508 76.3466 0 81.0086 0C125.293 0 161.192 35.8192 161.192 80.0043Z" fill="#55BD7F"/>
<path d="M133.841 80.0043C133.841 119.538 105.102 152.365 67.3416 158.839C29.572 152.365 0.833374 119.529 0.833374 80.0043C0.833374 40.4794 29.572 7.63505 67.3416 1.16077C105.102 7.63505 133.841 40.4708 133.841 80.0043Z" fill="#8FFF9D"/>
<path d="M52.0631 65.8521C44.997 65.8521 42.2998 82.644 35.5093 79.0414C28.4518 75.3013 38.9046 53.6172 52.0631 53.6172C65.2217 53.6172 76.4414 74.966 68.6169 79.0414C61.5335 82.73 59.1293 65.8521 52.0631 65.8521Z" fill="#1D3226"/>
<path d="M109.963 65.8521C117.029 65.8521 119.726 82.644 126.516 79.0414C133.574 75.3013 123.121 53.6172 109.963 53.6172C96.8041 53.6172 85.5844 74.966 93.4089 79.0414C100.492 82.73 102.896 65.8521 109.963 65.8521Z" fill="#1D3226"/>
<path d="M102.896 116.169C96.1907 120.692 88.2697 124 80.9332 124C73.5968 124 65.7401 120.704 59.0759 116.193C44.9467 106.633 36.2365 91.6258 49.7227 91.0179C50.0033 91.006 50.2955 91 50.5995 91H111.267C111.618 91 111.951 91.006 112.272 91.0238C125.782 91.7152 117.031 106.639 102.89 116.169H102.896Z" fill="#1D3226"/>
<path d="M111.994 91.0238C110.644 92.4694 109.114 94.0101 107.672 95.3129C103.633 98.9655 90.0508 101 81 101C71.9492 101 58.3671 98.9655 54.3284 95.3129C52.8798 94.0042 51.3501 92.4634 50 91.0178C50.2781 91.0059 50.5679 91 50.8692 91H111.003C111.351 91 111.681 91.0059 112 91.0238H111.994Z" fill="#F9EAD9"/>
<path d="M103 116.095C96.2673 120.661 88.3138 124 80.9472 124C73.5806 124 65.6916 120.673 59 116.119C63.6137 113.039 71.7492 111 81.0176 111C90.286 111 98.3805 113.033 103 116.101V116.095Z" fill="#FE6A0F"/>
<path d="M174.049 85.7564C174.049 85.7564 176.936 36.103 166.595 36.103C156.255 36.103 156.255 91.0356 156.255 91.0356C156.255 91.0356 147.603 92.4715 145.199 106.624C142.794 120.776 155.057 132.77 168.034 136.132C181.021 139.494 202.176 134.696 205.537 115.265C205.537 115.265 221.16 122.461 218.523 106.151C215.878 89.8405 201.935 94.3974 201.935 94.3974C201.935 94.3974 197.85 84.3206 188.949 89.5997C188.949 89.5997 209.38 51.459 200.728 47.1428C192.077 42.8267 174.041 85.765 174.041 85.765L174.049 85.7564Z" fill="#8FFF9D"/>
<path d="M161.192 91.3364C161.192 91.3364 177.419 95.3517 185.838 102.307C194.257 109.263 185.545 124.258 166.819 111C166.819 111 166.363 121.498 157.228 121.498" stroke="#34694D" stroke-width="1.62" stroke-linecap="round" stroke-linejoin="round"/>
<path d="M187.992 114.542C187.992 114.542 194.326 117.681 199.048 113.579C207.347 106.383 202.418 96.5469 202.418 96.5469" stroke="#34694D" stroke-width="1.62" stroke-linecap="round" stroke-linejoin="round"/>
<path d="M205.304 114.543C205.304 114.543 203.055 112.78 201.892 110.304" stroke="#34694D" stroke-width="1.62" stroke-linecap="round" stroke-linejoin="round"/>
</g>
<defs>
<clipPath id="clip0_45_163">
<rect width="218" height="160" fill="white" transform="translate(0.833374)"/>
</clipPath>
</defs>
</svg>
