<svg width="72" height="72" viewBox="0 0 72 72" fill="none" xmlns="http://www.w3.org/2000/svg">
<path d="M6.80769 62H65.1923M6.80769 62C5.79783 62 4.82933 61.5891 4.11525 60.8577C3.40117 60.1263 3 59.1343 3 58.1M6.80769 62H11.8846C13.9865 62 15.6923 60.2528 15.6923 58.1M65.1923 62C67.2942 62 69 60.2528 69 58.1M65.1923 62H60.1154C59.1055 62 58.137 61.5891 57.4229 60.8577C56.7089 60.1263 56.3077 59.1343 56.3077 58.1M3 58.1V13.9M3 58.1V52.9C3 50.7472 4.70585 49 6.80769 49M15.6923 58.1V39.9M15.6923 58.1C15.6923 60.2528 17.3982 62 19.5 62H52.5C54.6018 62 56.3077 60.2528 56.3077 58.1M15.6923 58.1V52.9C15.6923 50.7472 13.9865 49 11.8846 49M3 13.9C3 11.7472 4.70585 10 6.80769 10M3 13.9V19.1C3 21.2528 4.70585 23 6.80769 23M6.80769 49C4.70585 49 3 47.2528 3 45.1V39.9C3 37.7472 4.70585 36 6.80769 36M6.80769 49H11.8846M69 58.1V13.9M69 58.1V52.9C69 50.7472 67.2942 49 65.1923 49M69 13.9C69 11.7472 67.2942 10 65.1923 10M69 13.9V19.1C69 21.2528 67.2942 23 65.1923 23M65.1923 49C67.2942 49 69 47.2528 69 45.1V39.9C69 37.7472 67.2942 36 65.1923 36M65.1923 49H60.1154M56.3077 58.1V39.9M56.3077 58.1V52.9C56.3077 50.7472 58.0135 49 60.1154 49M65.1923 10H6.80769M65.1923 10H60.1154C58.0135 10 56.3077 11.7472 56.3077 13.9M6.80769 10H11.8846C13.9865 10 15.6923 11.7472 15.6923 13.9M56.3077 13.9C56.3077 11.7472 54.6018 10 52.5 10H19.5C17.3982 10 15.6923 11.7472 15.6923 13.9M56.3077 13.9V19.1C56.3077 20.1343 56.7089 21.1263 57.4229 21.8577C58.137 22.5891 59.1055 23 60.1154 23M56.3077 13.9V32.1M65.1923 23H60.1154M65.1923 23C67.2942 23 69 24.7472 69 26.9V32.1C69 34.2528 67.2942 36 65.1923 36M15.6923 13.9V19.1C15.6923 21.2528 13.9865 23 11.8846 23M15.6923 13.9V32.1M6.80769 23H11.8846M6.80769 23C4.70585 23 3 24.7472 3 26.9V32.1C3 34.2528 4.70585 36 6.80769 36M11.8846 23C13.9865 23 15.6923 24.7472 15.6923 26.9V32.1M6.80769 36H11.8846M15.6923 32.1C15.6923 33.1343 16.0935 34.1263 16.8076 34.8577C17.5216 35.5891 18.4901 36 19.5 36M15.6923 32.1C15.6923 34.2528 13.9865 36 11.8846 36M60.1154 23C58.0135 23 56.3077 24.7472 56.3077 26.9V32.1M56.3077 32.1C56.3077 34.2528 54.6018 36 52.5 36M56.3077 32.1C56.3077 34.2528 58.0135 36 60.1154 36M65.1923 36H60.1154M19.5 36H52.5M19.5 36C17.3982 36 15.6923 37.7472 15.6923 39.9M52.5 36C54.6018 36 56.3077 37.7472 56.3077 39.9M15.6923 39.9V45.1C15.6923 47.2528 13.9865 49 11.8846 49M15.6923 39.9C15.6923 37.7472 13.9865 36 11.8846 36M60.1154 36C58.0135 36 56.3077 37.7472 56.3077 39.9M56.3077 39.9V45.1C56.3077 47.2528 58.0135 49 60.1154 49" stroke="#FE6A0F" stroke-width="4" stroke-linecap="round" stroke-linejoin="round"/>
</svg>
