<svg width="31" height="31" viewBox="0 0 31 31" fill="none" xmlns="http://www.w3.org/2000/svg">
<path d="M15.6636 10.464C12.8905 10.464 10.6275 12.727 10.6275 15.5001C10.6275 18.2731 12.8905 20.5362 15.6636 20.5362C18.4366 20.5362 20.6997 18.2731 20.6997 15.5001C20.6997 12.727 18.4366 10.464 15.6636 10.464ZM30.7681 15.5001C30.7681 13.4146 30.787 11.348 30.6699 9.26633C30.5528 6.8484 30.0012 4.70248 28.233 2.93437C26.4612 1.16248 24.319 0.614664 21.9011 0.497546C19.8156 0.380427 17.749 0.399317 15.6674 0.399317C13.5819 0.399317 11.5153 0.380427 9.43362 0.497546C7.01569 0.614664 4.86978 1.16625 3.10167 2.93437C1.32977 4.70626 0.781961 6.8484 0.664843 9.26633C0.547724 11.3518 0.566614 13.4184 0.566614 15.5001C0.566614 17.5817 0.547724 19.6521 0.664843 21.7338C0.781961 24.1517 1.33355 26.2976 3.10167 28.0658C4.87356 29.8376 7.01569 30.3855 9.43362 30.5026C11.5191 30.6197 13.5857 30.6008 15.6674 30.6008C17.7528 30.6008 19.8194 30.6197 21.9011 30.5026C24.319 30.3855 26.4649 29.8339 28.233 28.0658C30.0049 26.2939 30.5528 24.1517 30.6699 21.7338C30.7908 19.6521 30.7681 17.5855 30.7681 15.5001ZM15.6636 23.2488C11.3755 23.2488 7.91486 19.7881 7.91486 15.5001C7.91486 11.212 11.3755 7.75134 15.6636 7.75134C19.9516 7.75134 23.4123 11.212 23.4123 15.5001C23.4123 19.7881 19.9516 23.2488 15.6636 23.2488ZM23.7296 9.24366C22.7285 9.24366 21.92 8.43516 21.92 7.43399C21.92 6.43281 22.7285 5.62432 23.7296 5.62432C24.7308 5.62432 25.5393 6.43281 25.5393 7.43399C25.5396 7.67172 25.493 7.90718 25.4022 8.12687C25.3113 8.34657 25.178 8.54618 25.0099 8.71428C24.8418 8.88239 24.6422 9.01568 24.4225 9.10651C24.2028 9.19735 23.9674 9.24396 23.7296 9.24366Z" fill="#ECF6EF"/>
</svg>
