<svg width="211" height="144" viewBox="0 0 211 144" fill="none" xmlns="http://www.w3.org/2000/svg">
<rect x="55.9288" y="24.6218" width="119.378" height="119.378" rx="14.9223" fill="#9B8CFF"/>
<rect x="41.0066" y="13.4299" width="119.378" height="119.378" rx="14.9223" fill="#FF8A26"/>
<rect x="25.3455" width="119.378" height="119.378" rx="14.9223" fill="#DBFF4B"/>
<path d="M49.1932 79.5538C47.8827 80.8657 47.8839 82.9916 49.1957 84.3021C50.5076 85.6126 52.6335 85.6114 53.944 84.2996L49.1932 79.5538ZM73.677 59.795L76.0595 57.4294C75.4304 56.7958 74.5749 56.4389 73.6821 56.4375C72.7892 56.4362 71.9326 56.7905 71.3016 57.4222L73.677 59.795ZM84.859 71.057L82.4765 73.4226C83.1051 74.0558 83.9599 74.4127 84.8522 74.4145C85.7444 74.4163 86.6006 74.0629 87.2319 73.4324L84.859 71.057ZM121.858 37.4532C121.859 35.5989 120.357 34.0949 118.502 34.0939L88.2847 34.0777C86.4304 34.0768 84.9264 35.5792 84.9254 37.4335C84.9244 39.2878 86.4268 40.7918 88.2811 40.7928L115.141 40.8071L115.127 67.6672C115.126 69.5215 116.628 71.0255 118.483 71.0265C120.337 71.0275 121.841 69.5251 121.842 67.6708L121.858 37.4532ZM53.944 84.2996L76.0523 62.1679L71.3016 57.4222L49.1932 79.5538L53.944 84.2996ZM71.2944 62.1607L82.4765 73.4226L87.2416 68.6913L76.0595 57.4294L71.2944 62.1607ZM87.2319 73.4324L120.873 39.8268L116.128 35.076L82.4862 68.6816L87.2319 73.4324Z" fill="#1E1E1E"/>
<rect x="188.593" y="119.721" width="20.9302" height="20.9302" rx="5.02326" fill="#8FFF9D"/>
<rect x="6.08142" y="24.2791" width="27.6279" height="27.6279" rx="5.02326" fill="#9B8CFF"/>
<rect x="199.058" y="50.2327" width="11.7209" height="11.7209" rx="3.34884" fill="white"/>
<rect x="0.220947" y="119.721" width="11.7209" height="11.7209" rx="3.34884" fill="white"/>
</svg>
