<svg width="33" height="33" viewBox="0 0 33 33" fill="none" xmlns="http://www.w3.org/2000/svg">
<path d="M16.718 0.100586C7.89916 0.100586 0.750244 7.44272 0.750244 16.4999C0.750244 25.5572 7.89916 32.8993 16.718 32.8993C25.5369 32.8993 32.6858 25.5572 32.6858 16.4999C32.6858 7.44272 25.5369 0.100586 16.718 0.100586ZM12.8093 23.2971H9.57578V12.6102H12.8093V23.2971ZM11.1726 11.2983C10.1513 11.2983 9.49095 10.5552 9.49095 9.63613C9.49095 8.69829 10.1712 7.9774 11.2141 7.9774C12.257 7.9774 12.8958 8.69829 12.9157 9.63613C12.9157 10.5552 12.257 11.2983 11.1726 11.2983ZM24.6188 23.2971H21.3853V17.3746C21.3853 15.996 20.9162 15.0599 19.7469 15.0599C18.8537 15.0599 18.3231 15.6936 18.0886 16.3035C18.0021 16.5204 17.9805 16.8279 17.9805 17.1337V23.2954H14.7454V16.0182C14.7454 14.6841 14.7038 13.5686 14.6605 12.6085H17.4699L17.6179 14.093H17.6828C18.1086 13.396 19.1515 12.3676 20.8963 12.3676C23.0237 12.3676 24.6188 13.8316 24.6188 16.9783V23.2971Z" fill="#ECF6EF"/>
</svg>
