<svg width="209" height="56" viewBox="0 0 209 56" fill="none" xmlns="http://www.w3.org/2000/svg">
<path d="M0 24.9104H8.82605L8.89608 11.8924L13.3441 24.9104H19.4149L23.9329 11.7168V24.9104H32.756V0.351021H20.5444L16.3795 13.1209L12.2146 0.351021H0V24.9104Z" fill="#F9EAD9"/>
<path d="M36.7108 24.9104H45.5368V18.8402H51.6441V12.3856C41.3385 11.8228 38.9363 10.2099 38.9363 7.71944C38.9363 5.71923 40.4555 4.66616 43.771 4.66616C55.809 4.66616 56.3723 16.734 52.7006 24.9104H61.7002C66.7145 14.9456 62.6897 0 47.053 0C39.5331 0 35.5813 2.73555 35.5813 6.73598C35.5813 10.7364 39.2164 13.015 48.2191 13.472V14.6309H36.7108V24.9104Z" fill="#F9EAD9"/>
<path d="M66.4679 24.9104H75.2909V13.3328L84.2205 24.9104H93.1531V0.351021H84.327V11.9287L75.3975 0.351021H66.4679V24.9104Z" fill="#F9EAD9"/>
<path d="M105.508 17.893V7.36842H109.356C113.697 7.36842 114.544 10.2462 114.544 12.6307C114.544 15.0152 113.697 17.893 109.356 17.893H105.508ZM96.6817 24.9104H109.776C116.447 24.9104 123.543 22.1385 123.543 12.6307C123.543 3.12288 116.45 0.351021 109.779 0.351021H96.6847V24.9104H96.6817Z" fill="#F9EAD9"/>
<path d="M135.015 12.9121V7.087H138.617C141.193 7.087 142.182 8.03415 142.182 9.99805C142.182 11.962 141.193 12.9091 138.617 12.9091H135.015V12.9121ZM126.192 24.9104H135.018V19.1579H138.723L142.289 24.9104H151.538L147.02 17.7871C149.668 16.4193 151.185 13.9289 151.185 9.99805C151.185 3.33168 146.807 0.351021 140.1 0.351021H126.192V24.9104Z" fill="#F9EAD9"/>
<path d="M163.01 0.351021H154.183V24.9104H163.01V0.351021Z" fill="#F9EAD9"/>
<path d="M188.915 24.9104H209V17.893H197.741V0.351021H188.915V24.9104ZM186.623 24.9104V17.893H175.361V0.351021H166.535V24.9104H186.623Z" fill="#F9EAD9"/>
<path d="M55.325 56C54.1011 56 52.9228 55.5158 52.0582 54.6534C49.5252 52.1357 47.3666 49.9903 45.7439 48.3774C43.9415 46.586 43.9415 43.681 45.7439 41.8895L52.0612 35.6105C52.9259 34.7511 54.1011 34.2669 55.325 34.2669H153.678C154.902 34.2669 156.077 34.7511 156.942 35.6105L163.259 41.8895C165.062 43.681 165.062 46.586 163.259 48.3774C161.579 50.0478 159.374 52.2386 156.945 54.6534C156.08 55.5128 154.902 56 153.678 56H55.325Z" fill="#DBFF4B"/>
<path d="M55.9095 39.0844L61.0365 44.1803C61.5662 44.7068 61.5662 45.5632 61.0365 46.0927L55.9095 51.1886C55.054 52.0389 53.5896 51.4367 53.5896 50.2324V40.0406C53.5896 38.8363 55.054 38.2341 55.9095 39.0844Z" fill="#171E19"/>
<path d="M153.094 51.0585L147.967 45.9626C147.437 45.4361 147.437 44.5797 147.967 44.0501L153.094 38.9543C153.949 38.104 155.413 38.7062 155.413 39.9105V50.1022C155.413 51.3066 153.949 51.9088 153.094 51.0585Z" fill="#171E19"/>
<path d="M76.1464 39.2054V50.9858H72.9284V39.2054H76.1464Z" fill="#171E19"/>
<path d="M88.5833 39.2054V50.9858H85.898L81.6144 44.7976H81.5443V50.9858H78.3263V39.2054H81.0572L85.2708 45.3725H85.3622V39.2054H88.5833Z" fill="#171E19"/>
<path d="M93.6767 39.2054L96.1063 47.5119H96.1976L98.6271 39.2054H102.262L98.3501 50.9858H93.9508L90.0385 39.2054H93.6767Z" fill="#171E19"/>
<path d="M103.727 39.2054H112.27V41.7836H106.945V43.8081H111.828V46.3862H106.945V48.4107H112.245V50.9889H103.727V39.2054Z" fill="#171E19"/>
<path d="M120.907 42.8851C120.876 42.5008 120.733 42.2012 120.475 41.9864C120.219 41.7715 119.829 41.6656 119.309 41.6656C118.977 41.6656 118.706 41.705 118.496 41.7836C118.286 41.8623 118.13 41.9682 118.03 42.1014C117.929 42.2345 117.878 42.3888 117.875 42.5613C117.865 42.7036 117.893 42.8307 117.954 42.9426C118.015 43.0546 118.109 43.1575 118.24 43.2482C118.371 43.339 118.538 43.4207 118.742 43.4934C118.946 43.566 119.19 43.6326 119.473 43.69L120.444 43.8958C121.102 44.035 121.662 44.2166 122.128 44.4435C122.594 44.6705 122.977 44.9368 123.272 45.2394C123.571 45.545 123.787 45.887 123.93 46.2652C124.07 46.6435 124.143 47.058 124.146 47.5089C124.143 48.2836 123.948 48.9402 123.562 49.4758C123.175 50.0115 122.624 50.42 121.909 50.7014C121.193 50.9828 120.335 51.122 119.33 51.122C118.325 51.122 117.403 50.9707 116.635 50.6681C115.868 50.3655 115.275 49.8995 114.851 49.267C114.428 48.6376 114.215 47.8267 114.212 46.8432H117.269C117.287 47.2033 117.378 47.5059 117.54 47.751C117.701 47.9961 117.929 48.1837 118.225 48.3078C118.52 48.4349 118.873 48.4984 119.281 48.4984C119.625 48.4984 119.911 48.4561 120.143 48.3713C120.374 48.2866 120.551 48.1686 120.669 48.0203C120.788 47.872 120.852 47.6996 120.855 47.5089C120.852 47.3274 120.791 47.17 120.679 47.0338C120.566 46.8977 120.377 46.7736 120.121 46.6647C119.863 46.5557 119.513 46.4528 119.074 46.356L117.893 46.1018C116.842 45.8749 116.017 45.4966 115.412 44.967C114.809 44.4345 114.507 43.7112 114.51 42.7883C114.507 42.0409 114.708 41.3842 115.116 40.8244C115.524 40.2615 116.087 39.8258 116.812 39.5111C117.537 39.1964 118.365 39.039 119.302 39.039C120.24 39.039 121.087 39.1994 121.787 39.5171C122.484 39.8349 123.023 40.2827 123.403 40.8607C123.784 41.4387 123.976 42.1135 123.979 42.8821H120.901L120.907 42.8851Z" fill="#171E19"/>
<path d="M125.376 41.7806V39.2024H135.679V41.7806H132.114V50.9858H128.941V41.7806H125.376Z" fill="#171E19"/>
</svg>
