<svg width="63" height="63" viewBox="0 0 63 63" fill="none" xmlns="http://www.w3.org/2000/svg">
<rect x="0.65625" y="0.65625" width="61.6875" height="61.6875" rx="30.8438" stroke="url(#paint0_angular_3008_652)" stroke-width="1.3125"/>
<path d="M40 23.5833V39.4167C40 39.8366 39.8372 40.2393 39.5473 40.5363C39.2575 40.8332 38.8644 41 38.4545 41H34.5909C34.181 41 33.7879 40.8332 33.4981 40.5363C33.2083 40.2393 33.0455 39.8366 33.0455 39.4167V23.5833C33.0455 23.1634 33.2083 22.7607 33.4981 22.4637C33.7879 22.1668 34.181 22 34.5909 22H38.4545C38.8644 22 39.2575 22.1668 39.5473 22.4637C39.8372 22.7607 40 23.1634 40 23.5833ZM28.4091 22H24.5455C24.1356 22 23.7425 22.1668 23.4527 22.4637C23.1628 22.7607 23 23.1634 23 23.5833V39.4167C23 39.8366 23.1628 40.2393 23.4527 40.5363C23.7425 40.8332 24.1356 41 24.5455 41H28.4091C28.819 41 29.2121 40.8332 29.5019 40.5363C29.7917 40.2393 29.9545 39.8366 29.9545 39.4167V23.5833C29.9545 23.1634 29.7917 22.7607 29.5019 22.4637C29.2121 22.1668 28.819 22 28.4091 22Z" fill="white"/>
<defs>
<radialGradient id="paint0_angular_3008_652" cx="0" cy="0" r="1" gradientUnits="userSpaceOnUse" gradientTransform="translate(31.5 31.5) rotate(90) scale(31.5)">
<stop stop-color="white"/>
<stop offset="0.416819" stop-color="white"/>
<stop offset="0.579823" stop-color="white"/>
<stop offset="1" stop-color="white"/>
</radialGradient>
</defs>
</svg>
