<svg width="72" height="72" viewBox="0 0 72 72" fill="none" xmlns="http://www.w3.org/2000/svg">
<path d="M8.92308 6V43.5C8.92308 45.4891 9.7011 47.3968 11.086 48.8033C12.4709 50.2098 14.3492 51 16.3077 51H23.6923M8.92308 6H4M8.92308 6H63.0769M23.6923 51H48.3077M23.6923 51L20.4103 61M63.0769 6H68M63.0769 6V43.5C63.0769 45.4891 62.2989 47.3968 60.914 48.8033C59.5291 50.2098 57.6508 51 55.6923 51H48.3077M48.3077 51L51.5897 61M20.4103 61H51.5897M20.4103 61L18.7692 66M51.5897 61L53.2308 66M21.2308 36L31.0769 26L38.1268 33.16C41.439 28.331 45.7548 24.2994 50.7692 21.35" stroke="#8FFF9D" stroke-width="4" stroke-linecap="round" stroke-linejoin="round"/>
</svg>
