<svg width="72" height="72" viewBox="0 0 72 72" fill="none" xmlns="http://www.w3.org/2000/svg">
<path d="M27.1442 5H12.5859C10.574 5 8.64451 5.79923 7.22187 7.22187C5.79923 8.64451 5 10.574 5 12.5859V27.1442C5 29.157 5.79905 31.0889 7.22184 32.5083L39.5244 64.8109C41.8811 67.1676 45.5257 67.7509 48.314 65.9235C55.3322 61.3269 61.3269 55.3322 65.9235 48.314C67.7509 45.5257 67.1676 41.8811 64.8109 39.5244L32.5117 7.22521C31.8071 6.51978 30.9704 5.96016 30.0494 5.57834C29.1284 5.19652 28.1412 4.99999 27.1442 5Z" stroke="#DBFF4B" stroke-width="4" stroke-linecap="round" stroke-linejoin="round"/>
<path d="M15.1146 15.1146H15.1416V15.1416H15.1146V15.1146Z" stroke="#DBFF4B" stroke-width="4" stroke-linecap="round" stroke-linejoin="round"/>
</svg>
