<svg width="84" height="84" viewBox="0 0 84 84" fill="none" xmlns="http://www.w3.org/2000/svg">
<g filter="url(#filter0_bf_3380_74)">
<rect x="4" y="4" width="76" height="76" rx="38" fill="white" fill-opacity="0.03"/>
<rect x="3.62" y="3.62" width="76.76" height="76.76" rx="38.38" stroke="#E4E4E4" stroke-opacity="0.22" stroke-width="0.76"/>
<path d="M35.1592 39.7661C34.2567 39.7661 33.5293 40.5026 33.5293 41.4046V46.7634C33.5293 47.6707 34.262 48.4019 35.1592 48.4019C36.0564 48.4019 36.7891 47.6654 36.7891 46.7634V41.4046C36.7891 40.4973 36.0564 39.7661 35.1592 39.7661Z" fill="#9B8CFF"/>
<path d="M49.4726 40.0863C48.57 40.0863 47.8427 40.8229 47.8427 41.7249V47.0836C47.8427 47.991 48.5753 48.7222 49.4726 48.7222C50.3698 48.7222 51.1025 47.9856 51.1025 47.0836V41.7249C51.1025 40.8175 50.3698 40.0863 49.4726 40.0863Z" fill="#9B8CFF"/>
<path d="M60.5262 36.7878C60.1545 33.8095 57.8663 31.4558 54.9091 31.0288C51.4741 30.5324 47.8692 30.2068 44.0838 30.1161L47.6781 24.4051C47.9436 24.4745 48.2196 24.5118 48.5063 24.5118C50.3804 24.5118 51.9042 22.98 51.9042 21.0959C51.9042 19.2118 50.3804 17.68 48.5063 17.68C46.6322 17.68 45.1085 19.2118 45.1085 21.0959C45.1085 21.9179 45.4005 22.6758 45.8836 23.2682L41.5832 30.1001C37.5961 30.1214 33.4178 30.4096 29.0112 31.0448C26.0859 31.4664 23.8402 33.8469 23.4738 36.7985C22.8421 41.8743 22.8421 46.9502 23.4738 52.026C23.8455 55.0043 26.1337 57.3581 29.0909 57.785C36.821 58.9006 45.3793 59.1621 54.9888 57.769C57.9141 57.3474 60.1598 54.9669 60.5262 52.0153C61.1579 46.9395 61.1579 41.8636 60.5262 36.7878ZM56.8416 51.551C56.6771 52.8533 55.7002 53.8888 54.4631 54.0702C50.2902 54.6734 46.0854 54.9829 41.9761 54.9829C37.8669 54.9829 33.8107 54.6894 29.6218 54.0862C28.337 53.8994 27.3283 52.864 27.1637 51.5617C26.5744 46.8167 26.5744 42.0078 27.1637 37.2628C27.3283 35.9605 28.3051 34.9251 29.5422 34.7436C33.7151 34.1405 37.9199 33.8309 42.0292 33.8309C46.1385 33.8309 50.1999 34.1245 54.3782 34.7276C55.663 34.9144 56.6717 35.9498 56.8363 37.2522C57.4256 41.9917 57.4256 46.8061 56.8363 51.551H56.8416Z" fill="#9B8CFF"/>
</g>
<defs>
<filter id="filter0_bf_3380_74" x="-19.18" y="-19.18" width="122.36" height="122.36" filterUnits="userSpaceOnUse" color-interpolation-filters="sRGB">
<feFlood flood-opacity="0" result="BackgroundImageFix"/>
<feGaussianBlur in="BackgroundImageFix" stdDeviation="11.21"/>
<feComposite in2="SourceAlpha" operator="in" result="effect1_backgroundBlur_3380_74"/>
<feBlend mode="normal" in="SourceGraphic" in2="effect1_backgroundBlur_3380_74" result="shape"/>
<feGaussianBlur stdDeviation="1.52" result="effect2_foregroundBlur_3380_74"/>
</filter>
</defs>
</svg>
