<svg width="30" height="26" viewBox="0 0 30 26" fill="none" xmlns="http://www.w3.org/2000/svg">
<path d="M29.6589 5.84362C29.5281 8.67759 27.5515 12.558 23.7293 17.4992C19.7763 22.673 16.4337 25.2164 13.6723 25.2164C12.001 25.2164 10.5622 23.6468 9.38506 20.4931C8.58573 17.6446 7.85908 14.767 7.04522 11.8894C6.17323 8.75026 5.2431 7.18068 4.22578 7.18068C4.02231 7.18068 3.26659 7.64574 1.9586 8.56133L0.592484 6.78828C2.0458 5.52389 3.44099 4.25951 4.83617 2.99512C6.75455 1.33834 8.19334 0.466345 9.138 0.379146C11.4052 0.146615 12.8004 1.7162 13.3236 5.02976C13.8903 8.61946 14.2827 10.843 14.5007 11.715C15.1257 14.6798 15.8523 16.1331 16.6517 16.1331C17.262 16.1331 18.1776 15.203 19.3984 13.2701C20.6192 11.3517 21.2732 9.88385 21.3604 8.86652C21.5348 7.20974 20.8808 6.38135 19.3984 6.38135C18.7008 6.38135 17.9887 6.54121 17.2475 6.86095C18.6718 2.16673 21.404 -0.114982 25.4297 0.0158167C28.4235 0.103016 29.8332 2.05046 29.6589 5.84362Z" fill="#ECF6EF"/>
</svg>
