<svg width="28" height="27" viewBox="0 0 28 27" fill="none" xmlns="http://www.w3.org/2000/svg">
<path d="M23.3908 4.06563C22.1709 2.83335 20.7178 1.85631 19.1163 1.19149C17.5148 0.526679 15.797 0.187398 14.063 0.193439C6.79762 0.193439 0.876228 6.11483 0.876228 13.3802C0.876228 15.7088 1.48833 17.9709 2.63269 19.9669L0.769775 26.8064L7.75569 24.9701C9.68513 26.0214 11.8541 26.5802 14.063 26.5802C21.3283 26.5802 27.2497 20.6588 27.2497 13.3935C27.2497 9.86726 25.8791 6.55395 23.3908 4.06563ZM14.063 24.3447C12.0936 24.3447 10.1642 23.8125 8.47424 22.8145L8.07504 22.575L3.92342 23.6661L5.02786 19.6209L4.76173 19.2084C3.66759 17.4612 3.08662 15.4417 3.08511 13.3802C3.08511 7.33903 8.00851 2.41562 14.0497 2.41562C16.9771 2.41562 19.7315 3.55998 21.794 5.6358C22.8153 6.65237 23.6246 7.86153 24.1751 9.19319C24.7256 10.5249 25.0063 11.9525 25.0009 13.3935C25.0275 19.4346 20.1041 24.3447 14.063 24.3447ZM20.0775 16.1479C19.7448 15.9883 18.1215 15.1899 17.8287 15.0701C17.5227 14.9637 17.3098 14.9104 17.0835 15.2298C16.8573 15.5624 16.2319 16.3076 16.0456 16.5205C15.8593 16.7467 15.6597 16.7733 15.3271 16.6004C14.9944 16.4407 13.9299 16.0814 12.6791 14.9637C11.6944 14.0854 11.0424 13.0076 10.8428 12.6749C10.6565 12.3423 10.8162 12.1693 10.9892 11.9963C11.1355 11.8499 11.3218 11.6104 11.4815 11.4241C11.6412 11.2378 11.7077 11.0915 11.8142 10.8786C11.9206 10.6523 11.8674 10.4661 11.7876 10.3064C11.7077 10.1467 11.0424 8.52331 10.7763 7.85798C10.5101 7.21927 10.2307 7.29911 10.0311 7.2858H9.39239C9.16618 7.2858 8.82021 7.36564 8.51416 7.69831C8.22142 8.03097 7.3698 8.82936 7.3698 10.4528C7.3698 12.0761 8.55408 13.6463 8.71376 13.8592C8.87343 14.0854 11.0424 17.4121 14.3424 18.8358C15.1275 19.1818 15.7396 19.3814 16.2186 19.5278C17.0037 19.7806 17.7223 19.7407 18.2944 19.6608C18.9331 19.5677 20.2505 18.8625 20.5166 18.0907C20.7961 17.3189 20.7961 16.6669 20.7029 16.5205C20.6098 16.3741 20.4102 16.3076 20.0775 16.1479Z" fill="#ECF6EF"/>
</svg>
